<svg xmlns="http://www.w3.org/2000/svg" viewBox="0 0 17 27" style="enable-background:new 0 0 17 27" xml:space="preserve"><path style="fill-rule:evenodd;clip-rule:evenodd;fill:#fff" d="M8.5 0C3.806 0 0 3.828 0 8.549v9.899c0 4.722 3.806 8.549 8.5 8.549 4.695 0 8.5-3.828 8.5-8.549V8.549C17 3.828 13.195 0 8.5 0zM15 18.607c0 3.611-2.91 6.538-6.5 6.538S2 22.218 2 18.607V8.549c0-3.611 2.91-6.538 6.5-6.538S15 4.938 15 8.549v10.058zM8.5 5.029c-.828 0-1.5.676-1.5 1.509v5.029c0 .833.672 1.509 1.5 1.509S10 12.4 10 11.567V6.538c0-.833-.672-1.509-1.5-1.509z"/></svg>